<?xml version="1.0" encoding="UTF-8" standalone="no"?>
<svg
   version="1.1"
   width="38.5"
   height="35.943195"
   id="svg304"
   sodipodi:docname="King_White.svg"
   inkscape:version="1.2.1 (9c6d41e, 2022-07-14)"
   inkscape:export-filename="Queen_White.svg"
   inkscape:export-xdpi="96"
   inkscape:export-ydpi="96"
   xmlns:inkscape="http://www.inkscape.org/namespaces/inkscape"
   xmlns:sodipodi="http://sodipodi.sourceforge.net/DTD/sodipodi-0.dtd"
   xmlns="http://www.w3.org/2000/svg"
   xmlns:svg="http://www.w3.org/2000/svg">
  <defs
     id="defs308" />
  <sodipodi:namedview
     id="namedview306"
     pagecolor="#ffffff"
     bordercolor="#000000"
     borderopacity="0.25"
     inkscape:showpageshadow="2"
     inkscape:pageopacity="0.0"
     inkscape:pagecheckerboard="0"
     inkscape:deskcolor="#d1d1d1"
     showgrid="false"
     inkscape:zoom="4.1455781"
     inkscape:cx="32.685429"
     inkscape:cy="60.787662"
     inkscape:window-width="1440"
     inkscape:window-height="822"
     inkscape:window-x="0"
     inkscape:window-y="25"
     inkscape:window-maximized="0"
     inkscape:current-layer="svg304" />
  <!-- white king //-->
  <g
     style="fill:none;fill-opacity:1;fill-rule:evenodd;stroke:#000000;stroke-width:1.5;stroke-linecap:round;stroke-linejoin:round;stroke-miterlimit:4;stroke-dasharray:none;stroke-opacity:1"
     transform="translate(-3.2185931,-4.8409023)"
     id="g146">
    <path
       d="M 22.5,11.63 V 6"
       style="fill:none;stroke:#000000;stroke-linejoin:miter"
       id="path132" />
    <path
       d="m 20,8 h 5"
       style="fill:none;stroke:#000000;stroke-linejoin:miter"
       id="path134" />
    <path
       d="m 22.5,25 c 0,0 4.5,-7.5 3,-10.5 0,0 -1,-2.5 -3,-2.5 -2,0 -3,2.5 -3,2.5 -1.5,3 3,10.5 3,10.5"
       style="fill:#ffffff;stroke:#000000;stroke-linecap:butt;stroke-linejoin:miter"
       id="path136" />
    <path
       d="m 11.5,37 c 5.5,3.5 15.5,3.5 21,0 v -7 c 0,0 9,-4.5 6,-10.5 -4,-6.5 -13.5,-3.5 -16,4 V 27 23.5 C 19,16 9.5,13 6.5,19.5 c -3,6 5,10 5,10 z"
       style="fill:#ffffff;stroke:#000000"
       id="path138" />
    <path
       d="M 11.5,30 C 17,27 27,27 32.5,30"
       style="fill:none;stroke:#000000"
       id="path140" />
    <path
       d="m 11.5,33.5 c 5.5,-3 15.5,-3 21,0"
       style="fill:none;stroke:#000000"
       id="path142" />
    <path
       d="M 11.5,37 C 17,34 27,34 32.5,37"
       style="fill:none;stroke:#000000"
       id="path144" />
  </g>
  <!-- white queen //-->
  <!-- white bishop //-->
  <!-- white knight //-->
  <!-- white rook //-->
  <!-- white pawn //-->
  <!-- black king //-->
  <!-- black queen //-->
  <!-- black bishop //-->
  <!-- black knight //-->
  <!-- black rook //-->
  <!-- black pawn //-->
</svg>
